<svg width="86" height="31" viewBox="0 0 86 31" fill="none" xmlns="http://www.w3.org/2000/svg">
<path fill-rule="evenodd" clip-rule="evenodd" d="M17.4436 3.87236C16.8283 2.83592 15.676 1.9674 14.3526 1.37761C13.0229 0.785021 11.473 0.452029 10.0131 0.526416L10.0543 1.33431C11.3716 1.26718 12.7951 1.56913 14.0233 2.1165C15.2578 2.66668 16.248 3.44316 16.7481 4.28534L17.4436 3.87236ZM15.6625 5.08395C15.1914 4.29043 14.3161 3.63462 13.3235 3.19224C12.3245 2.74705 11.1591 2.49616 10.0583 2.55225L10.0995 3.36014C11.0577 3.31131 12.0967 3.53115 12.9942 3.93112C13.8979 4.3339 14.6111 4.89767 14.9669 5.49694L15.6625 5.08395ZM21.8131 12.1895L19.1001 11.1012C18.5046 10.8667 17.6353 10.2043 17.2492 9.69437L15.7447 7.70759C12.8244 3.8509 7.31686 3.08997 3.47079 6.00228C-0.377854 8.93327 -1.14683 14.4302 1.77353 18.2869L3.26991 20.263C3.65608 20.773 4.0579 21.7893 4.13276 22.418L4.44467 25.3245C4.5751 26.446 5.1366 27.4083 6.00271 27.9561C6.87686 28.5144 7.99156 28.6399 9.0507 28.2725C10.4878 27.7861 11.855 27.1855 13.1872 26.4943C13.2536 26.4607 13.3181 26.4245 13.3825 26.3882L13.3826 26.3881L13.3827 26.3881C13.4471 26.3518 13.5116 26.3156 13.578 26.282C13.7425 26.1907 13.9177 26.0915 14.0928 25.9923L14.0931 25.9921L14.0938 25.9917C14.4022 25.825 14.7025 25.6478 15.0055 25.4518C15.7231 25.0087 16.4272 24.5257 17.1072 24.0108C17.7765 23.504 18.4217 22.9652 19.0322 22.4027C19.2605 22.1964 19.4887 21.9901 19.6983 21.7813L19.6985 21.7811L19.6985 21.7811L19.6986 21.781L19.6986 21.781C19.8737 21.615 20.0487 21.449 20.2157 21.2725C20.3245 21.1734 20.4253 21.0636 20.526 20.9539L20.5261 20.9538C21.5713 19.8616 22.5253 18.6711 23.3831 17.4197C23.992 16.524 24.1523 15.4331 23.8544 14.4217C23.5485 13.3996 22.8038 12.5927 21.8131 12.1895ZM6.94774 15.6646L11.1444 9.39253C11.2965 9.16528 11.6506 9.31382 11.595 9.58154L10.7845 13.4858C10.7524 13.6403 10.8704 13.7853 11.0282 13.7853H13.4066C13.6121 13.7853 13.7291 14.0203 13.6051 14.1843L8.70361 20.6672C8.53994 20.8837 8.19721 20.7192 8.26376 20.4561L9.29934 16.3618C9.33911 16.2046 9.22025 16.0519 9.05803 16.0519H7.15461C6.95562 16.0519 6.83708 15.8299 6.94774 15.6646ZM12.633 30.2273C13.966 29.6218 14.6467 28.0977 14.4381 26.4946C14.2748 26.598 14.1217 26.6968 13.9687 26.7956C13.8414 26.8831 13.7043 26.9616 13.5659 27.041C13.4993 27.0792 13.4324 27.1175 13.366 27.1572C12.8193 27.4787 12.2514 27.7806 11.6669 28.0461C11.0722 28.3162 10.4609 28.55 9.84889 28.7548C9.59177 28.8423 9.32914 28.9177 9.07677 28.9884C9.00412 29.0077 8.93495 29.0286 8.86706 29.0491L8.86703 29.0491C8.79047 29.0722 8.71553 29.0949 8.63905 29.1141C9.00858 29.5464 9.47514 29.9199 9.96862 30.1349C10.8468 30.5703 11.8229 30.5953 12.633 30.2273Z" fill="white"/>
<path d="M37 11.32L36.088 24.64C36.072 24.88 35.984 25 35.824 25H34.504C33.608 25 32.968 24.824 32.584 24.472C32.2 24.12 32.008 23.616 32.008 22.96C32.008 22.72 32.016 22.36 32.032 21.88C32.064 21.4 32.104 20.84 32.152 20.2C32.2 19.544 32.248 18.84 32.296 18.088C32.36 17.32 32.424 16.552 32.488 15.784C32.552 15 32.608 14.224 32.656 13.456C32.72 12.688 32.776 11.976 32.824 11.32H28.984C28.808 11.32 28.72 11.208 28.72 10.984L28.792 9.64C28.808 9.432 28.84 9.232 28.888 9.04C28.952 8.832 29.048 8.648 29.176 8.488C29.304 8.328 29.464 8.2 29.656 8.104C29.864 8.008 30.112 7.96 30.4 7.96H41.128C41.224 7.96 41.312 7.984 41.392 8.032C41.472 8.08 41.512 8.168 41.512 8.296L41.416 9.712C41.384 10.192 41.248 10.584 41.008 10.888C40.784 11.176 40.312 11.32 39.592 11.32H37ZM46.2233 25.24C45.5193 25.24 44.8153 25.152 44.1113 24.976C43.4233 24.8 42.7993 24.496 42.2393 24.064C41.6953 23.632 41.2473 23.056 40.8953 22.336C40.5433 21.616 40.3673 20.712 40.3673 19.624C40.3673 19.224 40.3993 18.744 40.4633 18.184C40.5273 17.624 40.6473 17.048 40.8233 16.456C41.0153 15.864 41.2713 15.28 41.5913 14.704C41.9273 14.112 42.3593 13.584 42.8873 13.12C43.4153 12.656 44.0553 12.28 44.8073 11.992C45.5593 11.704 46.4553 11.56 47.4953 11.56C48.3273 11.56 49.0313 11.656 49.6073 11.848C50.1833 12.04 50.6473 12.304 50.9993 12.64C51.3513 12.96 51.6073 13.336 51.7673 13.768C51.9273 14.2 52.0073 14.664 52.0073 15.16C52.0073 15.896 51.8553 16.52 51.5513 17.032C51.2633 17.544 50.8793 17.976 50.3993 18.328C49.9353 18.664 49.4153 18.928 48.8393 19.12C48.2633 19.312 47.6953 19.464 47.1353 19.576C46.5753 19.672 46.0553 19.736 45.5753 19.768C45.1113 19.784 44.7513 19.792 44.4953 19.792C44.4953 20.096 44.5353 20.4 44.6153 20.704C44.7113 20.992 44.8473 21.248 45.0233 21.472C45.1993 21.696 45.4313 21.88 45.7193 22.024C46.0073 22.168 46.3593 22.24 46.7753 22.24C47.1913 22.24 47.5113 22.176 47.7353 22.048C47.9753 21.904 48.1673 21.752 48.3113 21.592C48.4553 21.416 48.5753 21.264 48.6713 21.136C48.7833 20.992 48.9273 20.92 49.1033 20.92C49.1833 20.92 49.3193 20.944 49.5113 20.992C49.7193 21.024 49.9273 21.104 50.1353 21.232C50.3433 21.36 50.5273 21.536 50.6873 21.76C50.8473 21.984 50.9273 22.272 50.9273 22.624C50.9273 23.088 50.7833 23.488 50.4953 23.824C50.2073 24.16 49.8313 24.432 49.3673 24.64C48.9193 24.848 48.4153 25 47.8553 25.096C47.2953 25.192 46.7513 25.24 46.2233 25.24ZM46.6793 14.752C46.3273 14.752 46.0233 14.856 45.7673 15.064C45.5273 15.256 45.3193 15.504 45.1433 15.808C44.9833 16.112 44.8553 16.448 44.7593 16.816C44.6793 17.184 44.6153 17.536 44.5673 17.872C45.5593 17.856 46.3593 17.688 46.9673 17.368C47.5913 17.048 47.9033 16.592 47.9033 16C47.9033 15.68 47.7993 15.392 47.5913 15.136C47.3993 14.88 47.0953 14.752 46.6793 14.752ZM56.2368 25.216C55.2448 25.216 54.5328 24.952 54.1008 24.424C53.6688 23.896 53.4528 23.024 53.4528 21.808C53.4528 21.616 53.4608 21.376 53.4768 21.088C53.5088 20.8 53.5408 20.432 53.5728 19.984C53.6208 19.52 53.6768 18.952 53.7408 18.28C53.8048 17.608 53.8688 16.792 53.9328 15.832C54.0128 14.872 54.0928 13.744 54.1728 12.448C54.2688 11.152 54.3648 9.648 54.4608 7.936C54.4768 7.584 54.5168 7.376 54.5808 7.312C54.6288 7.264 54.7568 7.24 54.9648 7.24H55.9008C56.3808 7.24 56.7808 7.296 57.1008 7.408C57.4208 7.52 57.6768 7.672 57.8688 7.864C58.0608 8.056 58.1968 8.28 58.2768 8.536C58.3568 8.776 58.3968 9.032 58.3968 9.304C58.3968 9.624 58.3728 10.088 58.3248 10.696C58.2928 11.288 58.2448 11.96 58.1808 12.712C58.1168 13.464 58.0528 14.248 57.9888 15.064C57.9248 15.88 57.8608 16.664 57.7968 17.416C57.7328 18.152 57.6768 18.816 57.6288 19.408C57.5968 20 57.5808 20.448 57.5808 20.752C57.5808 21.168 57.6528 21.464 57.7968 21.64C57.9568 21.816 58.1248 21.944 58.3008 22.024C58.4768 22.088 58.6368 22.136 58.7808 22.168C58.9408 22.184 59.0208 22.232 59.0208 22.312C59.0208 22.664 58.9808 23.016 58.9008 23.368C58.8208 23.704 58.6768 24.016 58.4688 24.304C58.2608 24.576 57.9728 24.8 57.6048 24.976C57.2528 25.136 56.7968 25.216 56.2368 25.216ZM66.2389 25.24C65.5349 25.24 64.8309 25.152 64.1269 24.976C63.4389 24.8 62.8149 24.496 62.2549 24.064C61.7109 23.632 61.2629 23.056 60.9109 22.336C60.5589 21.616 60.3829 20.712 60.3829 19.624C60.3829 19.224 60.4149 18.744 60.4789 18.184C60.5429 17.624 60.6629 17.048 60.8389 16.456C61.0309 15.864 61.2869 15.28 61.6069 14.704C61.9429 14.112 62.3749 13.584 62.9029 13.12C63.4309 12.656 64.0709 12.28 64.8229 11.992C65.5749 11.704 66.4709 11.56 67.5109 11.56C68.3429 11.56 69.0469 11.656 69.6229 11.848C70.1989 12.04 70.6629 12.304 71.0149 12.64C71.3669 12.96 71.6229 13.336 71.7829 13.768C71.9429 14.2 72.0229 14.664 72.0229 15.16C72.0229 15.896 71.8709 16.52 71.5669 17.032C71.2789 17.544 70.8949 17.976 70.4149 18.328C69.9509 18.664 69.4309 18.928 68.8549 19.12C68.2789 19.312 67.7109 19.464 67.1509 19.576C66.5909 19.672 66.0709 19.736 65.5909 19.768C65.1269 19.784 64.7669 19.792 64.5109 19.792C64.5109 20.096 64.5509 20.4 64.6309 20.704C64.7269 20.992 64.8629 21.248 65.0389 21.472C65.2149 21.696 65.4469 21.88 65.7349 22.024C66.0229 22.168 66.3749 22.24 66.7909 22.24C67.2069 22.24 67.5269 22.176 67.7509 22.048C67.9909 21.904 68.1829 21.752 68.3269 21.592C68.4709 21.416 68.5909 21.264 68.6869 21.136C68.7989 20.992 68.9429 20.92 69.1189 20.92C69.1989 20.92 69.3349 20.944 69.5269 20.992C69.7349 21.024 69.9429 21.104 70.1509 21.232C70.3589 21.36 70.5429 21.536 70.7029 21.76C70.8629 21.984 70.9429 22.272 70.9429 22.624C70.9429 23.088 70.7989 23.488 70.5109 23.824C70.2229 24.16 69.8469 24.432 69.3829 24.64C68.9349 24.848 68.4309 25 67.8709 25.096C67.3109 25.192 66.7669 25.24 66.2389 25.24ZM66.6949 14.752C66.3429 14.752 66.0389 14.856 65.7829 15.064C65.5429 15.256 65.3349 15.504 65.1589 15.808C64.9989 16.112 64.8709 16.448 64.7749 16.816C64.6949 17.184 64.6309 17.536 64.5829 17.872C65.5749 17.856 66.3749 17.688 66.9829 17.368C67.6069 17.048 67.9189 16.592 67.9189 16C67.9189 15.68 67.8149 15.392 67.6069 15.136C67.4149 14.88 67.1109 14.752 66.6949 14.752ZM79.7826 16.144C80.1186 15.712 80.4466 15.232 80.7666 14.704C81.0866 14.16 81.3826 13.664 81.6546 13.216C81.9426 12.752 82.1986 12.368 82.4226 12.064C82.6466 11.744 82.8306 11.584 82.9746 11.584C83.0866 11.584 83.2466 11.672 83.4546 11.848C83.6786 12.024 83.8946 12.248 84.1026 12.52C84.3266 12.792 84.5186 13.104 84.6786 13.456C84.8386 13.792 84.9186 14.128 84.9186 14.464C84.9186 15.152 84.5746 15.816 83.8866 16.456C83.1986 17.08 82.3026 17.776 81.1986 18.544C81.8866 19.568 82.4706 20.44 82.9506 21.16C83.4306 21.88 83.8226 22.48 84.1266 22.96C84.4466 23.424 84.6786 23.784 84.8226 24.04C84.9666 24.296 85.0386 24.472 85.0386 24.568C85.0386 24.68 84.9746 24.784 84.8466 24.88C84.7186 24.96 84.5426 25 84.3186 25H82.6866C81.8546 25 81.1746 24.8 80.6466 24.4C80.1186 24 79.6706 23.416 79.3026 22.648L78.3426 20.728C77.7346 21.416 77.2306 22.04 76.8306 22.6C76.4466 23.16 76.1266 23.64 75.8706 24.04C75.6146 24.424 75.4066 24.728 75.2466 24.952C75.0866 25.16 74.9266 25.264 74.7666 25.264C74.6546 25.264 74.4786 25.208 74.2386 25.096C74.0146 24.984 73.7826 24.824 73.5426 24.616C73.3026 24.392 73.0946 24.128 72.9186 23.824C72.7426 23.504 72.6546 23.136 72.6546 22.72C72.6546 22.368 72.7346 22.032 72.8946 21.712C73.0546 21.376 73.3026 21.048 73.6386 20.728C73.9906 20.392 74.4306 20.04 74.9586 19.672C75.4866 19.304 76.1266 18.896 76.8786 18.448C76.3506 17.504 75.8626 16.68 75.4146 15.976C74.9826 15.272 74.6066 14.68 74.2866 14.2C73.9826 13.704 73.7426 13.304 73.5666 13C73.3906 12.696 73.3026 12.464 73.3026 12.304C73.3026 12.144 73.4066 12.024 73.6146 11.944C73.8386 11.848 74.2386 11.8 74.8146 11.8C75.4386 11.8 75.9586 11.856 76.3746 11.968C76.7906 12.064 77.1426 12.208 77.4306 12.4C77.7186 12.592 77.9506 12.824 78.1266 13.096C78.3186 13.368 78.5026 13.672 78.6786 14.008L79.7826 16.144Z" fill="white"/>
</svg>
